<svg xmlns="http://www.w3.org/2000/svg" viewBox="0 0 45.16 43.97"><defs><style>.cls-2{fill:#3598db}</style></defs><g id="Capa_1-2"><path d="M3.32 19.42c0-7.63 6.19-13.82 13.82-13.82h14.21c3.88 0 7.38 1.6 9.89 4.17-1.73-5.66-6.99-9.78-13.22-9.78h-14.2C6.19 0 0 6.19 0 13.82c0 3.75 1.5 7.15 3.92 9.64-.39-1.28-.6-2.63-.6-4.04Z" style="fill:#499de2"/><path class="cls-2" d="M41.24 9.78c.39 1.28.6 2.63.6 4.04 0 7.63-6.19 13.82-13.82 13.82h-14.2c-3.88 0-7.38-1.6-9.89-4.17 1.73 5.66 6.99 9.78 13.22 9.78h14.21c7.63 0 13.82-6.19 13.82-13.82 0-3.75-1.5-7.15-3.92-9.64Z"/><path d="M13.82 27.63h14.21c7.63 0 13.82-6.19 13.82-13.82 0-1.4-.21-2.76-.6-4.04a13.78 13.78 0 0 0-9.89-4.17H17.15c-7.63 0-13.82 6.19-13.82 13.82 0 1.4.21 2.76.6 4.04a13.78 13.78 0 0 0 9.89 4.17Z" style="fill:#1976d2"/><path class="cls-2" d="M23.66 32.42V42.9c0 .95-1.15 1.42-1.82.75L6.9 28.7l16.75 3.72Z"/></g></svg>